<svg xmlns="http://www.w3.org/2000/svg" xmlns:xlink="http://www.w3.org/1999/xlink" width="839" zoomAndPan="magnify" viewBox="0 0 629.25 629.249998" height="839" preserveAspectRatio="xMidYMid meet" version="1.0"><defs><clipPath id="41ebf065a6"><path d="M 0 0 L 628.5 0 L 628.5 628.5 L 0 628.5 Z M 0 0 " clip-rule="nonzero"/></clipPath><clipPath id="bbcd01cbe8"><path d="M 146.871094 146.871094 L 481.722656 146.871094 L 481.722656 481.722656 L 146.871094 481.722656 Z M 146.871094 146.871094 " clip-rule="nonzero"/></clipPath></defs><g clip-path="url(#41ebf065a6)"><path fill="#ffffff" d="M 628.46875 314.234375 C 628.46875 319.378906 628.34375 324.515625 628.089844 329.652344 C 627.835938 334.789062 627.460938 339.917969 626.957031 345.035156 C 626.453125 350.152344 625.820312 355.253906 625.066406 360.34375 C 624.3125 365.429688 623.433594 370.496094 622.429688 375.539062 C 621.425781 380.582031 620.300781 385.597656 619.050781 390.585938 C 617.800781 395.574219 616.429688 400.53125 614.9375 405.453125 C 613.445312 410.371094 611.832031 415.253906 610.101562 420.097656 C 608.367188 424.9375 606.515625 429.734375 604.550781 434.488281 C 602.582031 439.238281 600.496094 443.9375 598.296875 448.585938 C 596.101562 453.234375 593.789062 457.828125 591.363281 462.363281 C 588.941406 466.898438 586.40625 471.371094 583.761719 475.78125 C 581.117188 480.195312 578.367188 484.539062 575.511719 488.8125 C 572.652344 493.089844 569.691406 497.292969 566.628906 501.421875 C 563.566406 505.554688 560.402344 509.605469 557.140625 513.582031 C 553.878906 517.558594 550.519531 521.449219 547.066406 525.261719 C 543.613281 529.070312 540.066406 532.796875 536.429688 536.429688 C 532.796875 540.066406 529.070312 543.613281 525.261719 547.066406 C 521.449219 550.519531 517.558594 553.878906 513.582031 557.140625 C 509.605469 560.402344 505.554688 563.566406 501.421875 566.628906 C 497.292969 569.691406 493.089844 572.652344 488.8125 575.511719 C 484.539062 578.367188 480.195312 581.117188 475.78125 583.761719 C 471.371094 586.40625 466.898438 588.941406 462.363281 591.363281 C 457.828125 593.789062 453.234375 596.101562 448.585938 598.296875 C 443.9375 600.496094 439.238281 602.582031 434.488281 604.550781 C 429.734375 606.515625 424.9375 608.367188 420.097656 610.101562 C 415.253906 611.832031 410.371094 613.445312 405.453125 614.9375 C 400.53125 616.429688 395.574219 617.800781 390.585938 619.050781 C 385.597656 620.300781 380.582031 621.425781 375.539062 622.429688 C 370.496094 623.433594 365.429688 624.3125 360.34375 625.066406 C 355.253906 625.820312 350.152344 626.453125 345.035156 626.957031 C 339.917969 627.460938 334.789062 627.835938 329.652344 628.089844 C 324.515625 628.34375 319.378906 628.46875 314.234375 628.46875 C 309.089844 628.46875 303.953125 628.34375 298.816406 628.089844 C 293.679688 627.835938 288.550781 627.460938 283.433594 626.957031 C 278.316406 626.453125 273.214844 625.820312 268.125 625.066406 C 263.039062 624.3125 257.972656 623.433594 252.929688 622.429688 C 247.886719 621.425781 242.871094 620.300781 237.882812 619.050781 C 232.894531 617.800781 227.9375 616.429688 223.015625 614.9375 C 218.09375 613.445312 213.214844 611.832031 208.371094 610.101562 C 203.53125 608.367188 198.734375 606.515625 193.980469 604.550781 C 189.230469 602.582031 184.53125 600.496094 179.882812 598.296875 C 175.234375 596.101562 170.640625 593.789062 166.105469 591.363281 C 161.570312 588.941406 157.097656 586.40625 152.6875 583.761719 C 148.273438 581.117188 143.929688 578.367188 139.65625 575.511719 C 135.378906 572.652344 131.175781 569.691406 127.046875 566.628906 C 122.914062 563.566406 118.863281 560.402344 114.886719 557.140625 C 110.910156 553.878906 107.019531 550.519531 103.207031 547.066406 C 99.398438 543.613281 95.671875 540.066406 92.039062 536.429688 C 88.402344 532.796875 84.855469 529.070312 81.402344 525.261719 C 77.949219 521.449219 74.589844 517.558594 71.328125 513.582031 C 68.066406 509.605469 64.902344 505.554688 61.839844 501.421875 C 58.777344 497.292969 55.816406 493.089844 52.957031 488.8125 C 50.101562 484.539062 47.351562 480.195312 44.707031 475.78125 C 42.0625 471.371094 39.527344 466.898438 37.105469 462.363281 C 34.679688 457.828125 32.367188 453.234375 30.167969 448.585938 C 27.972656 443.9375 25.886719 439.238281 23.917969 434.488281 C 21.953125 429.734375 20.101562 424.9375 18.367188 420.097656 C 16.636719 415.253906 15.023438 410.371094 13.53125 405.453125 C 12.039062 400.53125 10.667969 395.574219 9.417969 390.585938 C 8.167969 385.597656 7.042969 380.582031 6.039062 375.539062 C 5.035156 370.496094 4.15625 365.429688 3.402344 360.34375 C 2.648438 355.253906 2.015625 350.152344 1.511719 345.035156 C 1.007812 339.917969 0.628906 334.789062 0.378906 329.652344 C 0.125 324.515625 0 319.378906 0 314.234375 C 0 309.089844 0.125 303.953125 0.378906 298.816406 C 0.628906 293.679688 1.007812 288.550781 1.511719 283.433594 C 2.015625 278.316406 2.648438 273.214844 3.402344 268.125 C 4.15625 263.039062 5.035156 257.972656 6.039062 252.929688 C 7.042969 247.886719 8.167969 242.871094 9.417969 237.882812 C 10.667969 232.894531 12.039062 227.9375 13.53125 223.015625 C 15.023438 218.097656 16.636719 213.214844 18.367188 208.371094 C 20.101562 203.53125 21.953125 198.734375 23.917969 193.980469 C 25.886719 189.230469 27.972656 184.53125 30.167969 179.882812 C 32.367188 175.234375 34.679688 170.640625 37.105469 166.105469 C 39.527344 161.570312 42.0625 157.097656 44.707031 152.6875 C 47.351562 148.273438 50.101562 143.929688 52.957031 139.65625 C 55.816406 135.378906 58.777344 131.175781 61.839844 127.046875 C 64.902344 122.914062 68.066406 118.863281 71.328125 114.886719 C 74.589844 110.910156 77.949219 107.019531 81.402344 103.207031 C 84.855469 99.398438 88.402344 95.671875 92.039062 92.039062 C 95.671875 88.402344 99.398438 84.855469 103.207031 81.402344 C 107.019531 77.949219 110.910156 74.589844 114.886719 71.328125 C 118.863281 68.066406 122.914062 64.902344 127.046875 61.839844 C 131.175781 58.777344 135.378906 55.816406 139.65625 52.957031 C 143.929688 50.101562 148.273438 47.351562 152.6875 44.707031 C 157.097656 42.0625 161.570312 39.527344 166.105469 37.105469 C 170.640625 34.679688 175.234375 32.367188 179.882812 30.167969 C 184.53125 27.972656 189.230469 25.886719 193.980469 23.917969 C 198.734375 21.953125 203.53125 20.101562 208.371094 18.367188 C 213.214844 16.636719 218.09375 15.023438 223.015625 13.53125 C 227.9375 12.039062 232.894531 10.667969 237.882812 9.417969 C 242.871094 8.167969 247.886719 7.042969 252.929688 6.039062 C 257.972656 5.035156 263.039062 4.15625 268.125 3.402344 C 273.214844 2.648438 278.316406 2.015625 283.433594 1.511719 C 288.550781 1.007812 293.679688 0.632812 298.816406 0.378906 C 303.953125 0.125 309.089844 0 314.234375 0 C 319.378906 0 324.515625 0.125 329.652344 0.378906 C 334.789062 0.632812 339.917969 1.007812 345.035156 1.511719 C 350.152344 2.015625 355.253906 2.648438 360.34375 3.402344 C 365.429688 4.15625 370.496094 5.035156 375.539062 6.039062 C 380.582031 7.042969 385.597656 8.167969 390.585938 9.417969 C 395.574219 10.667969 400.53125 12.039062 405.453125 13.53125 C 410.371094 15.023438 415.253906 16.636719 420.097656 18.367188 C 424.9375 20.101562 429.734375 21.953125 434.488281 23.917969 C 439.238281 25.886719 443.9375 27.972656 448.585938 30.167969 C 453.234375 32.367188 457.828125 34.679688 462.363281 37.105469 C 466.898438 39.527344 471.371094 42.0625 475.78125 44.707031 C 480.195312 47.351562 484.539062 50.101562 488.8125 52.957031 C 493.089844 55.816406 497.292969 58.777344 501.421875 61.839844 C 505.554688 64.902344 509.605469 68.066406 513.582031 71.328125 C 517.558594 74.589844 521.449219 77.949219 525.261719 81.402344 C 529.070312 84.855469 532.796875 88.402344 536.429688 92.039062 C 540.066406 95.671875 543.613281 99.398438 547.066406 103.207031 C 550.519531 107.019531 553.878906 110.910156 557.140625 114.886719 C 560.402344 118.863281 563.566406 122.914062 566.628906 127.046875 C 569.691406 131.175781 572.652344 135.378906 575.511719 139.65625 C 578.367188 143.929688 581.117188 148.273438 583.761719 152.6875 C 586.40625 157.097656 588.941406 161.570312 591.363281 166.105469 C 593.789062 170.640625 596.101562 175.234375 598.296875 179.882812 C 600.496094 184.53125 602.582031 189.230469 604.550781 193.980469 C 606.515625 198.734375 608.367188 203.53125 610.101562 208.371094 C 611.832031 213.214844 613.445312 218.09375 614.9375 223.015625 C 616.429688 227.9375 617.800781 232.894531 619.050781 237.882812 C 620.300781 242.871094 621.425781 247.886719 622.429688 252.929688 C 623.433594 257.972656 624.3125 263.039062 625.066406 268.125 C 625.820312 273.214844 626.453125 278.316406 626.957031 283.433594 C 627.460938 288.550781 627.835938 293.679688 628.089844 298.816406 C 628.34375 303.953125 628.46875 309.089844 628.46875 314.234375 Z M 628.46875 314.234375 " fill-opacity="1" fill-rule="nonzero"/></g><path stroke-linecap="butt" transform="matrix(16.115408, 0, 0, 16.115408, 0.000001, 0.0000199762)" fill-opacity="1" fill="#293647" fill-rule="nonzero" stroke-linejoin="miter" d="M 23.24372 18.464228 C 23.034293 18.463501 22.827047 18.505677 22.635315 18.588091 C 22.44334 18.670504 22.271 18.791215 22.129442 18.942953 C 21.987643 19.09469 21.879778 19.273818 21.812636 19.468944 C 21.745493 19.66407 21.720284 19.87083 21.739191 20.075894 L 21.743554 20.121464 L 24.727403 20.121464 L 24.727403 20.074197 L 24.748006 20.075894 C 24.766913 19.87083 24.741946 19.66407 24.674803 19.468944 C 24.607418 19.273818 24.499554 19.09469 24.357997 18.942953 C 24.216197 18.791215 24.043856 18.670504 23.851882 18.588091 C 23.66015 18.505677 23.452904 18.463501 23.24372 18.464228 Z M 23.24372 18.464228 C 23.24372 18.464228 23.243477 18.464228 23.243477 18.464228 L 23.24372 18.514403 Z M 18.699107 17.285717 L 18.699107 17.287899 C 18.718741 17.750868 18.56967 18.205596 18.278557 18.570638 C 17.987444 18.935681 17.573195 19.187042 17.110226 19.279393 L 17.119922 19.328599 L 17.11871 19.378532 C 17.40643 19.385803 17.689786 19.44931 17.952055 19.565174 C 18.214323 19.68128 18.450413 19.847561 18.646266 20.054079 C 18.842119 20.261082 18.994099 20.503959 19.092995 20.768894 C 19.191891 21.034071 19.236006 21.315731 19.222917 21.597633 L 19.222675 21.597633 L 19.222675 21.600057 C 19.222675 22.412071 18.867085 23.051259 18.278799 23.497746 C 17.689301 23.945202 16.864198 24.200198 15.926383 24.235588 L 12.050046 24.235588 L 12.050046 15.049891 L 15.927352 15.049891 C 16.770392 15.049891 17.463634 15.262469 17.945268 15.646176 C 18.425447 16.029156 18.699107 16.585688 18.699107 17.285717 Z M 13.832598 16.264276 L 13.782665 16.264276 L 13.782665 18.850117 L 15.069041 18.850117 C 15.707502 18.850117 16.17435 18.720437 16.482915 18.488225 C 16.79342 18.254316 16.937401 17.920542 16.937401 17.528594 C 16.937401 17.1381 16.805539 16.820082 16.556602 16.599989 C 16.308635 16.380867 15.950137 16.264276 15.50559 16.264276 Z M 13.782665 22.842802 L 13.782665 22.892977 L 15.287194 22.892977 L 15.287194 22.892492 C 16.002009 22.886917 16.519032 22.772266 16.86032 22.545144 C 17.215182 22.309296 17.373707 21.956131 17.373707 21.499949 C 17.373707 21.044978 17.216152 20.672906 16.914373 20.415486 C 16.613322 20.159035 16.175077 20.021356 15.621695 20.021356 L 13.782665 20.021356 Z M 20.006329 20.428575 L 20.006571 20.428575 L 20.006086 20.424939 C 19.975787 19.998813 20.039779 19.570991 20.193456 19.171286 C 20.347132 18.771339 20.587101 18.408963 20.896878 18.108639 C 21.206898 17.808315 21.579212 17.577315 21.988613 17.431395 C 22.398013 17.285717 22.834804 17.228512 23.268686 17.264144 L 23.272807 17.214211 L 23.275958 17.264144 C 23.70984 17.236754 24.144692 17.300988 24.550941 17.45321 C 24.95719 17.604948 25.325384 17.840795 25.630798 18.144755 C 25.93597 18.448473 26.171091 18.813273 26.320404 19.213947 C 26.469476 19.614622 26.529347 20.042202 26.495654 20.4676 L 26.495412 20.4676 L 26.495412 21.092972 L 21.69556 21.092972 L 21.69556 21.33997 C 21.670109 21.563455 21.693621 21.789607 21.7644 22.003155 C 21.835421 22.217914 21.952496 22.414979 22.107627 22.58126 C 22.262758 22.747784 22.452309 22.879403 22.663675 22.967634 C 22.873344 23.055137 23.099739 23.097798 23.327587 23.09295 C 23.650211 23.141187 23.979623 23.073802 24.25595 22.902673 C 24.522824 22.737603 24.722797 22.486485 24.821936 22.192948 L 26.482322 22.192948 C 26.321132 22.849346 25.923851 23.427452 25.362228 23.82037 C 24.783395 24.225407 24.071732 24.40405 23.365885 24.321879 L 23.365885 24.320667 L 23.355462 24.321637 C 22.908976 24.361874 22.458854 24.305881 22.036849 24.157537 C 21.614601 24.009193 21.230652 23.771891 20.911906 23.462841 C 20.592918 23.153549 20.346405 22.779537 20.190305 22.367228 C 20.033719 21.954919 19.97094 21.514007 20.006086 21.07552 L 20.006329 21.07552 Z M 21.140967 15.692958 L 25.404404 15.692958 L 25.404404 16.30718 L 21.140967 16.30718 Z M 21.140967 15.692958 " stroke="#ffffff" stroke-width="0.1" stroke-opacity="1" stroke-miterlimit="4"/><g clip-path="url(#bbcd01cbe8)"><path fill="#ffffff" d="M 197.097656 146.871094 L 431.492188 146.871094 C 433.140625 146.871094 434.78125 146.953125 436.417969 147.113281 C 438.054688 147.273438 439.679688 147.515625 441.292969 147.835938 C 442.90625 148.15625 444.5 148.554688 446.074219 149.035156 C 447.648438 149.511719 449.195312 150.066406 450.714844 150.695312 C 452.234375 151.324219 453.71875 152.027344 455.171875 152.800781 C 456.621094 153.578125 458.03125 154.421875 459.398438 155.335938 C 460.765625 156.25 462.085938 157.226562 463.359375 158.273438 C 464.628906 159.316406 465.847656 160.417969 467.011719 161.582031 C 468.171875 162.746094 469.277344 163.960938 470.320312 165.234375 C 471.363281 166.507812 472.34375 167.824219 473.257812 169.195312 C 474.171875 170.5625 475.015625 171.96875 475.789062 173.421875 C 476.566406 174.871094 477.269531 176.355469 477.898438 177.878906 C 478.527344 179.398438 479.082031 180.945312 479.558594 182.519531 C 480.035156 184.09375 480.433594 185.6875 480.757812 187.300781 C 481.078125 188.914062 481.320312 190.539062 481.480469 192.175781 C 481.640625 193.8125 481.722656 195.453125 481.722656 197.097656 L 481.722656 431.492188 C 481.722656 433.140625 481.640625 434.78125 481.480469 436.417969 C 481.320312 438.054688 481.078125 439.679688 480.757812 441.292969 C 480.433594 442.90625 480.035156 444.5 479.558594 446.074219 C 479.082031 447.648438 478.527344 449.195312 477.898438 450.714844 C 477.269531 452.234375 476.566406 453.71875 475.789062 455.171875 C 475.015625 456.621094 474.171875 458.03125 473.257812 459.398438 C 472.34375 460.765625 471.363281 462.085938 470.320312 463.359375 C 469.277344 464.628906 468.171875 465.847656 467.011719 467.011719 C 465.847656 468.171875 464.628906 469.277344 463.359375 470.320312 C 462.085938 471.363281 460.765625 472.34375 459.398438 473.257812 C 458.03125 474.171875 456.621094 475.015625 455.171875 475.789062 C 453.71875 476.566406 452.234375 477.269531 450.714844 477.898438 C 449.195312 478.527344 447.648438 479.082031 446.074219 479.558594 C 444.5 480.035156 442.90625 480.433594 441.292969 480.757812 C 439.679688 481.078125 438.054688 481.320312 436.417969 481.480469 C 434.78125 481.640625 433.140625 481.722656 431.492188 481.722656 L 197.097656 481.722656 C 195.453125 481.722656 193.8125 481.640625 192.175781 481.480469 C 190.539062 481.320312 188.914062 481.078125 187.300781 480.757812 C 185.6875 480.433594 184.09375 480.035156 182.519531 479.558594 C 180.945312 479.082031 179.398438 478.527344 177.878906 477.898438 C 176.355469 477.269531 174.871094 476.566406 173.421875 475.789062 C 171.96875 475.015625 170.5625 474.171875 169.195312 473.257812 C 167.824219 472.34375 166.507812 471.363281 165.234375 470.320312 C 163.960938 469.277344 162.746094 468.171875 161.582031 467.011719 C 160.417969 465.847656 159.316406 464.628906 158.273438 463.359375 C 157.226562 462.085938 156.25 460.765625 155.335938 459.398438 C 154.421875 458.03125 153.578125 456.621094 152.800781 455.171875 C 152.027344 453.71875 151.324219 452.234375 150.695312 450.714844 C 150.066406 449.195312 149.511719 447.648438 149.035156 446.074219 C 148.554688 444.5 148.15625 442.90625 147.835938 441.292969 C 147.515625 439.679688 147.273438 438.054688 147.113281 436.417969 C 146.953125 434.78125 146.871094 433.140625 146.871094 431.492188 L 146.871094 197.097656 C 146.871094 195.453125 146.953125 193.8125 147.113281 192.175781 C 147.273438 190.539062 147.515625 188.914062 147.835938 187.300781 C 148.15625 185.6875 148.554688 184.09375 149.035156 182.519531 C 149.511719 180.945312 150.066406 179.398438 150.695312 177.878906 C 151.324219 176.355469 152.027344 174.871094 152.800781 173.421875 C 153.578125 171.96875 154.421875 170.5625 155.335938 169.195312 C 156.25 167.824219 157.226562 166.507812 158.273438 165.234375 C 159.316406 163.960938 160.417969 162.746094 161.582031 161.582031 C 162.746094 160.417969 163.960938 159.316406 165.234375 158.273438 C 166.507812 157.226562 167.824219 156.25 169.195312 155.335938 C 170.5625 154.421875 171.96875 153.578125 173.421875 152.800781 C 174.871094 152.027344 176.355469 151.324219 177.878906 150.695312 C 179.398438 150.066406 180.945312 149.511719 182.519531 149.035156 C 184.09375 148.554688 185.6875 148.15625 187.300781 147.835938 C 188.914062 147.515625 190.539062 147.273438 192.175781 147.113281 C 193.8125 146.953125 195.453125 146.871094 197.097656 146.871094 Z M 197.097656 146.871094 " fill-opacity="1" fill-rule="nonzero"/></g><path fill="#472929" d="M 320.183594 183.496094 C 248.894531 183.496094 212.925781 234.507812 212.925781 277.671875 C 212.925781 303.179688 222.734375 326.066406 243.664062 334.570312 C 246.933594 335.878906 250.203125 334.570312 251.511719 331.300781 L 254.128906 318.875 C 255.4375 314.949219 254.78125 313.640625 252.164062 310.371094 C 246.28125 303.179688 242.355469 294.023438 242.355469 280.941406 C 242.355469 243.007812 270.476562 209 316.257812 209 C 356.804688 209 379.042969 233.851562 379.042969 266.554688 C 379.042969 310.371094 359.421875 346.34375 331.300781 346.34375 C 315.605469 346.34375 303.832031 333.917969 307.757812 317.566406 C 311.679688 298.601562 320.835938 278.324219 320.835938 264.589844 C 320.835938 252.164062 314.296875 241.703125 300.5625 241.703125 C 284.210938 241.703125 271.785156 258.707031 271.785156 280.941406 C 271.785156 294.675781 276.363281 304.484375 276.363281 304.484375 L 256.742188 386.238281 C 251.511719 410.433594 256.089844 440.519531 256.742188 443.136719 C 256.742188 445.097656 259.359375 445.75 260.015625 444.441406 C 261.320312 442.480469 280.941406 418.9375 287.480469 395.394531 L 297.945312 353.535156 C 303.179688 364 318.21875 372.503906 334.570312 372.503906 C 382.964844 372.503906 415.667969 328.683594 415.667969 269.824219 C 415.667969 224.699219 377.734375 183.496094 320.183594 183.496094 Z M 320.183594 183.496094 " fill-opacity="1" fill-rule="nonzero"/></svg>